<svg xmlns="http://www.w3.org/2000/svg" xmlns:xlink="http://www.w3.org/1999/xlink" width="1800" zoomAndPan="magnify" viewBox="0 0 1350 645.000003" height="860" preserveAspectRatio="xMidYMid meet" version="1.0"><defs><clipPath id="bbab821ed0"><path d="M 5 0 L 1345.988281 0 L 1345.988281 643 L 5 643 Z M 5 0 " clip-rule="nonzero"/></clipPath><clipPath id="64e5f117bf"><path d="M 1109.761719 281.761719 C 1106.433594 280.90625 1103.222656 281.167969 1099.875 280.730469 C 1093.300781 279.875 1087.230469 280.277344 1080.742188 280.609375 C 1064.886719 281.394531 1052.015625 291.304688 1048.683594 307.042969 C 1046.46875 317.546875 1046.679688 316.378906 1045.441406 327.648438 L 1045.71875 350.367188 L 1083.097656 350.628906 L 1083.097656 411.976562 C 1083.097656 411.976562 1045.5625 412.359375 1045.5625 412.359375 L 1045.5625 636.425781 C 1045.5625 636.425781 954.78125 636.40625 954.78125 636.40625 L 954.78125 412.324219 C 954.78125 412.324219 914.179688 412.027344 914.179688 412.027344 L 914.128906 350.679688 L 954.695312 350.558594 L 955.078125 308.859375 C 957.207031 267.4375 973.339844 235.140625 1013.210938 219.332031 C 1030.582031 212.773438 1048.265625 210.292969 1066.929688 210.101562 C 1085.117188 209.910156 1102.71875 210.941406 1120.59375 214.882812 L 1120.648438 283.246094 C 1116.808594 283.507812 1113.304688 282.6875 1109.78125 281.777344 Z M 62.117188 430.714844 L 60.214844 412.304688 C 59.519531 405.570312 58.628906 399.027344 59.222656 392.152344 C 59.398438 390.183594 58.648438 388.351562 58.648438 386.449219 L 58.648438 365.109375 C 58.664062 363 59.398438 360.957031 59.203125 358.777344 C 58.664062 352.476562 59.484375 346.527344 60.113281 340.332031 L 62.203125 319.746094 L 65.605469 297.046875 C 66.179688 293.222656 66.929688 289.875 67.75 285.894531 C 90.878906 172.554688 155.949219 72.421875 251.003906 6.242188 C 253.339844 4.617188 255.90625 3.46875 256.792969 0.746094 C 177.035156 44.941406 110.953125 110.980469 66.984375 190.542969 C 40.054688 239.292969 21.164062 291.792969 12.21875 346.527344 L 10.753906 355.496094 L 9.585938 363.730469 L 7.613281 380.65625 C 7.019531 385.785156 6.65625 390.617188 6.410156 395.75 L 5.695312 410.125 C 5.050781 422.933594 5.03125 435.722656 5.679688 448.546875 L 6.429688 463.429688 C 6.707031 469.03125 7.019531 473.949219 7.839844 479.796875 C 13.542969 536.292969 29.292969 590.902344 53.972656 642.355469 L 146.550781 642.128906 C 129.789062 619.414062 116.148438 596.730469 104.167969 572.164062 C 82.277344 527.289062 67.226562 479.882812 62.136719 430.695312 Z M 777.355469 558.746094 C 759.773438 567.242188 735.6875 574.171875 717.65625 572.652344 C 702.726562 571.398438 690.34375 568.082031 684.867188 552.5 C 682.109375 543.601562 680.609375 534.789062 680.59375 525.140625 L 680.347656 412.988281 L 777.738281 412.898438 L 777.738281 350.59375 C 777.738281 350.59375 680.46875 350.59375 680.46875 350.59375 L 680.242188 267.140625 C 675.324219 266.773438 671.15625 266.894531 666.394531 267.070312 L 626.296875 310.65625 L 605.316406 333.40625 L 589.828125 350.226562 L 571.761719 369.785156 L 549.855469 394.019531 C 549.488281 400.234375 549.488281 406.183594 549.855469 412.761719 L 590.683594 413.109375 L 590.824219 530.867188 C 590.824219 538.523438 591.363281 545.136719 592.339844 552.5 L 593.441406 560.769531 C 595.148438 573.542969 598.429688 585.511719 603.644531 597.273438 C 617.265625 627.929688 645.589844 639.738281 677.523438 641.957031 C 712.804688 644.398438 745.265625 638.605469 778.628906 626.324219 L 778 581.410156 L 777.304688 558.746094 Z M 345.882812 216.191406 C 394.195312 219.613281 436.367188 183.914062 441.058594 135.6875 C 445.835938 86.625 410.378906 43.125 361.5625 37.996094 C 314.800781 33.09375 272.160156 64.867188 264.050781 111.136719 C 254.769531 163.988281 292.703125 212.441406 345.882812 216.191406 Z M 1283.421875 346.195312 C 1250.894531 349.597656 1232.390625 373.554688 1215.402344 398.75 L 1200.074219 424.152344 L 1199.585938 350.574219 L 1108.996094 350.679688 L 1109.03125 636.441406 L 1199.671875 636.441406 C 1199.671875 636.441406 1199.742188 512.964844 1199.742188 512.964844 C 1202.375 501.429688 1205.585938 491.660156 1209.980469 481.3125 C 1216.605469 465.644531 1226.375 452.085938 1239.679688 441.445312 C 1249.03125 433.960938 1259.964844 429.875 1272 429.300781 C 1289.859375 428.445312 1307.195312 438.09375 1322.089844 449.628906 L 1346.457031 367.152344 C 1326.398438 354.5 1307.265625 344.503906 1283.421875 346.214844 Z M 132.597656 348.5 L 131.132812 336.652344 C 128.828125 318.019531 128.339844 297.777344 129.441406 279.039062 C 132.613281 225.003906 148.136719 173.390625 175.117188 126.371094 C 170.320312 128.933594 169.136719 133.628906 166.171875 137.46875 C 135.089844 185.867188 115.523438 240.355469 109.121094 297.464844 C 108.597656 302.054688 107.796875 305.753906 108.023438 310.359375 C 108.214844 314.390625 107.097656 318.382812 106.976562 322.46875 C 106.644531 334.3125 106.488281 346.023438 107.046875 357.835938 C 107.167969 360.363281 107.691406 362.839844 107.796875 365.320312 L 108.335938 377.515625 L 110.289062 392.03125 L 111.648438 401.367188 C 122.21875 474.105469 154.378906 543.480469 206.441406 595.476562 L 224.753906 613.761719 C 235.289062 624.265625 246.835938 633.144531 258.730469 642.339844 L 417.214844 642.289062 C 423.808594 642.289062 429.84375 643.402344 435.949219 641.378906 C 362.226562 633.300781 293.785156 601.808594 239.492188 551.679688 C 183.488281 499.980469 141.875 423.753906 132.597656 348.5 Z M 807.527344 350.574219 L 807.476562 636.371094 L 898.152344 636.269531 L 898.152344 350.679688 C 898.152344 350.679688 807.527344 350.574219 807.527344 350.574219 Z M 428.867188 510.121094 C 394.125 507.886719 360.359375 499.476562 328.878906 484.382812 C 308.085938 474.402344 288.921875 462.363281 271.757812 447.148438 L 264.660156 440.851562 C 258.851562 435.703125 253.601562 430.332031 248.335938 424.539062 C 211.429688 383.9375 187.917969 333.335938 181.152344 278.882812 C 179.304688 263.945312 179.179688 250.929688 179.546875 236.046875 C 179.601562 233.796875 180.453125 231.546875 178.640625 229.453125 C 177.140625 231.335938 178.308594 233.464844 177.875 235.402344 C 176.460938 241.699219 176.339844 247.808594 175.851562 254.210938 L 175.378906 260.578125 C 174.75 268.867188 174.679688 276.824219 175.378906 285.109375 C 176.339844 296.855469 176.214844 299.367188 177.839844 311.667969 C 181.328125 338.011719 188.582031 363.539062 199.222656 387.808594 C 239.597656 479.933594 324.605469 544.089844 424.035156 557.421875 C 428.292969 557.996094 431.972656 558.605469 436.226562 558.605469 C 438.300781 558.605469 440.34375 559.933594 442.714844 558.746094 L 442.714844 513.730469 C 442.730469 509.019531 441.5625 510.941406 428.867188 510.121094 Z M 852.089844 209.859375 C 839.917969 210.3125 829.609375 213.488281 820.433594 221.617188 C 809.289062 231.527344 803.761719 245.035156 804.300781 260.160156 C 804.824219 274.609375 810.875 287.328125 822.25 296.050781 C 831.28125 302.996094 841.3125 306.570312 852.804688 306.484375 C 864.699219 306.398438 875.671875 303.011719 884.828125 294.898438 C 898.710938 282.582031 903.15625 267.332031 900.558594 249.414062 C 897.035156 225.210938 876.070312 208.96875 852.089844 209.859375 Z M 852.089844 209.859375 " clip-rule="nonzero"/></clipPath><linearGradient x1="420.94" gradientTransform="matrix(1.7441, 0, 0, 1.744792, -58.347565, -197.637836)" y1="113.700024" x2="420.94" gradientUnits="userSpaceOnUse" y2="482.37241" id="b9fb20f443"><stop stop-opacity="1" stop-color="rgb(9.01947%, 29.019165%, 54.508972%)" offset="0"/><stop stop-opacity="1" stop-color="rgb(9.194946%, 28.913879%, 54.368591%)" offset="0.0625"/><stop stop-opacity="1" stop-color="rgb(9.545898%, 28.701782%, 54.08783%)" offset="0.125"/><stop stop-opacity="1" stop-color="rgb(9.895325%, 28.491211%, 53.807068%)" offset="0.1875"/><stop stop-opacity="1" stop-color="rgb(10.246277%, 28.279114%, 53.526306%)" offset="0.25"/><stop stop-opacity="1" stop-color="rgb(10.597229%, 28.068542%, 53.245544%)" offset="0.3125"/><stop stop-opacity="1" stop-color="rgb(10.85968%, 27.909851%, 53.033447%)" offset="0.34375"/><stop stop-opacity="1" stop-color="rgb(10.931396%, 27.920532%, 53.025818%)" offset="0.351562"/><stop stop-opacity="1" stop-color="rgb(10.804749%, 28.224182%, 53.340149%)" offset="0.355469"/><stop stop-opacity="1" stop-color="rgb(10.694885%, 28.465271%, 53.593445%)" offset="0.359375"/><stop stop-opacity="1" stop-color="rgb(10.585022%, 28.70636%, 53.845215%)" offset="0.363281"/><stop stop-opacity="1" stop-color="rgb(10.475159%, 28.947449%, 54.096985%)" offset="0.367188"/><stop stop-opacity="1" stop-color="rgb(10.365295%, 29.188538%, 54.348755%)" offset="0.371094"/><stop stop-opacity="1" stop-color="rgb(10.256958%, 29.429626%, 54.602051%)" offset="0.375"/><stop stop-opacity="1" stop-color="rgb(10.147095%, 29.670715%, 54.853821%)" offset="0.378906"/><stop stop-opacity="1" stop-color="rgb(10.037231%, 29.91333%, 55.107117%)" offset="0.382813"/><stop stop-opacity="1" stop-color="rgb(9.927368%, 30.154419%, 55.358887%)" offset="0.386719"/><stop stop-opacity="1" stop-color="rgb(9.817505%, 30.395508%, 55.610657%)" offset="0.390625"/><stop stop-opacity="1" stop-color="rgb(9.707642%, 30.636597%, 55.862427%)" offset="0.394531"/><stop stop-opacity="1" stop-color="rgb(9.599304%, 30.877686%, 56.115723%)" offset="0.398438"/><stop stop-opacity="1" stop-color="rgb(9.489441%, 31.118774%, 56.367493%)" offset="0.402344"/><stop stop-opacity="1" stop-color="rgb(9.379578%, 31.361389%, 56.620789%)" offset="0.40625"/><stop stop-opacity="1" stop-color="rgb(9.269714%, 31.602478%, 56.872559%)" offset="0.410156"/><stop stop-opacity="1" stop-color="rgb(9.159851%, 31.843567%, 57.124329%)" offset="0.414062"/><stop stop-opacity="1" stop-color="rgb(9.049988%, 32.084656%, 57.376099%)" offset="0.417969"/><stop stop-opacity="1" stop-color="rgb(8.94165%, 32.325745%, 57.629395%)" offset="0.421875"/><stop stop-opacity="1" stop-color="rgb(8.831787%, 32.566833%, 57.881165%)" offset="0.425781"/><stop stop-opacity="1" stop-color="rgb(8.721924%, 32.809448%, 58.132935%)" offset="0.429688"/><stop stop-opacity="1" stop-color="rgb(8.612061%, 33.050537%, 58.384705%)" offset="0.433594"/><stop stop-opacity="1" stop-color="rgb(8.502197%, 33.291626%, 58.638%)" offset="0.4375"/><stop stop-opacity="1" stop-color="rgb(8.392334%, 33.532715%, 58.889771%)" offset="0.441406"/><stop stop-opacity="1" stop-color="rgb(8.283997%, 33.773804%, 59.143066%)" offset="0.445312"/><stop stop-opacity="1" stop-color="rgb(8.174133%, 34.014893%, 59.394836%)" offset="0.449219"/><stop stop-opacity="1" stop-color="rgb(8.06427%, 34.257507%, 59.646606%)" offset="0.453125"/><stop stop-opacity="1" stop-color="rgb(7.954407%, 34.498596%, 59.898376%)" offset="0.457031"/><stop stop-opacity="1" stop-color="rgb(7.844543%, 34.739685%, 60.151672%)" offset="0.460938"/><stop stop-opacity="1" stop-color="rgb(7.73468%, 34.980774%, 60.403442%)" offset="0.464844"/><stop stop-opacity="1" stop-color="rgb(7.626343%, 35.221863%, 60.655212%)" offset="0.46875"/><stop stop-opacity="1" stop-color="rgb(7.516479%, 35.462952%, 60.906982%)" offset="0.472656"/><stop stop-opacity="1" stop-color="rgb(7.406616%, 35.705566%, 61.160278%)" offset="0.476563"/><stop stop-opacity="1" stop-color="rgb(7.296753%, 35.946655%, 61.412048%)" offset="0.480469"/><stop stop-opacity="1" stop-color="rgb(7.18689%, 36.187744%, 61.665344%)" offset="0.484375"/><stop stop-opacity="1" stop-color="rgb(7.077026%, 36.428833%, 61.917114%)" offset="0.488281"/><stop stop-opacity="1" stop-color="rgb(6.968689%, 36.669922%, 62.168884%)" offset="0.492188"/><stop stop-opacity="1" stop-color="rgb(6.858826%, 36.911011%, 62.420654%)" offset="0.496094"/><stop stop-opacity="1" stop-color="rgb(6.748962%, 37.153625%, 62.67395%)" offset="0.5"/><stop stop-opacity="1" stop-color="rgb(6.639099%, 37.394714%, 62.92572%)" offset="0.503906"/><stop stop-opacity="1" stop-color="rgb(6.529236%, 37.635803%, 63.179016%)" offset="0.507812"/><stop stop-opacity="1" stop-color="rgb(6.419373%, 37.876892%, 63.430786%)" offset="0.511719"/><stop stop-opacity="1" stop-color="rgb(6.309509%, 38.117981%, 63.682556%)" offset="0.515625"/><stop stop-opacity="1" stop-color="rgb(6.199646%, 38.35907%, 63.934326%)" offset="0.519531"/><stop stop-opacity="1" stop-color="rgb(6.091309%, 38.600159%, 64.187622%)" offset="0.523438"/><stop stop-opacity="1" stop-color="rgb(5.981445%, 38.841248%, 64.439392%)" offset="0.527344"/><stop stop-opacity="1" stop-color="rgb(5.871582%, 39.083862%, 64.691162%)" offset="0.53125"/><stop stop-opacity="1" stop-color="rgb(5.761719%, 39.324951%, 64.942932%)" offset="0.535156"/><stop stop-opacity="1" stop-color="rgb(5.651855%, 39.56604%, 65.196228%)" offset="0.539062"/><stop stop-opacity="1" stop-color="rgb(5.541992%, 39.807129%, 65.447998%)" offset="0.542969"/><stop stop-opacity="1" stop-color="rgb(5.433655%, 40.048218%, 65.701294%)" offset="0.546875"/><stop stop-opacity="1" stop-color="rgb(5.323792%, 40.289307%, 65.953064%)" offset="0.550781"/><stop stop-opacity="1" stop-color="rgb(5.213928%, 40.531921%, 66.204834%)" offset="0.554688"/><stop stop-opacity="1" stop-color="rgb(5.104065%, 40.77301%, 66.456604%)" offset="0.558594"/><stop stop-opacity="1" stop-color="rgb(4.994202%, 41.014099%, 66.7099%)" offset="0.5625"/><stop stop-opacity="1" stop-color="rgb(4.884338%, 41.255188%, 66.96167%)" offset="0.566406"/><stop stop-opacity="1" stop-color="rgb(4.776001%, 41.496277%, 67.21344%)" offset="0.570313"/><stop stop-opacity="1" stop-color="rgb(4.666138%, 41.737366%, 67.46521%)" offset="0.574219"/><stop stop-opacity="1" stop-color="rgb(4.556274%, 41.97998%, 67.718506%)" offset="0.578125"/><stop stop-opacity="1" stop-color="rgb(4.446411%, 42.221069%, 67.970276%)" offset="0.582031"/><stop stop-opacity="1" stop-color="rgb(4.336548%, 42.462158%, 68.223572%)" offset="0.585938"/><stop stop-opacity="1" stop-color="rgb(4.226685%, 42.703247%, 68.475342%)" offset="0.589844"/><stop stop-opacity="1" stop-color="rgb(4.118347%, 42.944336%, 68.727112%)" offset="0.59375"/><stop stop-opacity="1" stop-color="rgb(4.008484%, 43.185425%, 68.978882%)" offset="0.597656"/><stop stop-opacity="1" stop-color="rgb(3.898621%, 43.42804%, 69.232178%)" offset="0.601562"/><stop stop-opacity="1" stop-color="rgb(3.788757%, 43.669128%, 69.483948%)" offset="0.605469"/><stop stop-opacity="1" stop-color="rgb(3.678894%, 43.910217%, 69.735718%)" offset="0.609375"/><stop stop-opacity="1" stop-color="rgb(3.569031%, 44.151306%, 69.987488%)" offset="0.613281"/><stop stop-opacity="1" stop-color="rgb(3.460693%, 44.392395%, 70.240784%)" offset="0.617188"/><stop stop-opacity="1" stop-color="rgb(3.35083%, 44.633484%, 70.492554%)" offset="0.621094"/><stop stop-opacity="1" stop-color="rgb(3.240967%, 44.876099%, 70.74585%)" offset="0.625"/><stop stop-opacity="1" stop-color="rgb(3.222656%, 45.040894%, 70.913696%)" offset="0.632812"/><stop stop-opacity="1" stop-color="rgb(3.268433%, 45.304871%, 71.176147%)" offset="0.640625"/><stop stop-opacity="1" stop-color="rgb(3.392029%, 45.504761%, 71.366882%)" offset="0.648438"/><stop stop-opacity="1" stop-color="rgb(3.517151%, 45.703125%, 71.557617%)" offset="0.65625"/><stop stop-opacity="1" stop-color="rgb(3.640747%, 45.903015%, 71.748352%)" offset="0.664063"/><stop stop-opacity="1" stop-color="rgb(3.765869%, 46.101379%, 71.940613%)" offset="0.671875"/><stop stop-opacity="1" stop-color="rgb(3.889465%, 46.30127%, 72.131348%)" offset="0.679688"/><stop stop-opacity="1" stop-color="rgb(4.014587%, 46.499634%, 72.322083%)" offset="0.6875"/><stop stop-opacity="1" stop-color="rgb(4.138184%, 46.699524%, 72.512817%)" offset="0.695312"/><stop stop-opacity="1" stop-color="rgb(4.263306%, 46.897888%, 72.703552%)" offset="0.703125"/><stop stop-opacity="1" stop-color="rgb(4.388428%, 47.097778%, 72.894287%)" offset="0.710938"/><stop stop-opacity="1" stop-color="rgb(4.512024%, 47.296143%, 73.085022%)" offset="0.71875"/><stop stop-opacity="1" stop-color="rgb(4.637146%, 47.496033%, 73.275757%)" offset="0.726562"/><stop stop-opacity="1" stop-color="rgb(4.760742%, 47.694397%, 73.466492%)" offset="0.734375"/><stop stop-opacity="1" stop-color="rgb(4.885864%, 47.894287%, 73.657227%)" offset="0.742188"/><stop stop-opacity="1" stop-color="rgb(5.00946%, 48.092651%, 73.849487%)" offset="0.75"/><stop stop-opacity="1" stop-color="rgb(5.134583%, 48.292542%, 74.040222%)" offset="0.757813"/><stop stop-opacity="1" stop-color="rgb(5.258179%, 48.490906%, 74.230957%)" offset="0.765625"/><stop stop-opacity="1" stop-color="rgb(5.383301%, 48.690796%, 74.421692%)" offset="0.773438"/><stop stop-opacity="1" stop-color="rgb(5.506897%, 48.88916%, 74.612427%)" offset="0.78125"/><stop stop-opacity="1" stop-color="rgb(5.632019%, 49.08905%, 74.803162%)" offset="0.789062"/><stop stop-opacity="1" stop-color="rgb(5.757141%, 49.287415%, 74.993896%)" offset="0.796875"/><stop stop-opacity="1" stop-color="rgb(5.880737%, 49.487305%, 75.184631%)" offset="0.804688"/><stop stop-opacity="1" stop-color="rgb(6.005859%, 49.685669%, 75.375366%)" offset="0.8125"/><stop stop-opacity="1" stop-color="rgb(6.129456%, 49.885559%, 75.566101%)" offset="0.820312"/><stop stop-opacity="1" stop-color="rgb(6.254578%, 50.083923%, 75.756836%)" offset="0.828125"/><stop stop-opacity="1" stop-color="rgb(6.378174%, 50.283813%, 75.949097%)" offset="0.835938"/><stop stop-opacity="1" stop-color="rgb(6.503296%, 50.482178%, 76.139832%)" offset="0.84375"/><stop stop-opacity="1" stop-color="rgb(6.626892%, 50.682068%, 76.330566%)" offset="0.851563"/><stop stop-opacity="1" stop-color="rgb(6.752014%, 50.880432%, 76.521301%)" offset="0.859375"/><stop stop-opacity="1" stop-color="rgb(6.877136%, 51.080322%, 76.712036%)" offset="0.867188"/><stop stop-opacity="1" stop-color="rgb(7.000732%, 51.278687%, 76.902771%)" offset="0.875"/><stop stop-opacity="1" stop-color="rgb(7.125854%, 51.478577%, 77.093506%)" offset="0.882812"/><stop stop-opacity="1" stop-color="rgb(7.249451%, 51.676941%, 77.284241%)" offset="0.890625"/><stop stop-opacity="1" stop-color="rgb(7.374573%, 51.876831%, 77.474976%)" offset="0.898438"/><stop stop-opacity="1" stop-color="rgb(7.498169%, 52.075195%, 77.66571%)" offset="0.90625"/><stop stop-opacity="1" stop-color="rgb(7.623291%, 52.275085%, 77.857971%)" offset="0.914062"/><stop stop-opacity="1" stop-color="rgb(7.746887%, 52.47345%, 78.048706%)" offset="0.921875"/><stop stop-opacity="1" stop-color="rgb(7.872009%, 52.67334%, 78.239441%)" offset="0.929688"/><stop stop-opacity="1" stop-color="rgb(7.995605%, 52.871704%, 78.430176%)" offset="0.9375"/><stop stop-opacity="1" stop-color="rgb(8.120728%, 53.071594%, 78.620911%)" offset="0.945313"/><stop stop-opacity="1" stop-color="rgb(8.24585%, 53.269958%, 78.811646%)" offset="0.953125"/><stop stop-opacity="1" stop-color="rgb(8.369446%, 53.469849%, 79.00238%)" offset="0.960938"/><stop stop-opacity="1" stop-color="rgb(8.494568%, 53.668213%, 79.193115%)" offset="0.96875"/><stop stop-opacity="1" stop-color="rgb(8.618164%, 53.868103%, 79.38385%)" offset="0.976562"/><stop stop-opacity="1" stop-color="rgb(8.743286%, 54.066467%, 79.574585%)" offset="0.984375"/><stop stop-opacity="1" stop-color="rgb(8.912659%, 54.338074%, 79.833984%)" offset="1"/></linearGradient></defs><g clip-path="url(#bbab821ed0)"><g clip-path="url(#64e5f117bf)"><path fill="url(#b9fb20f443)" d="M 5.03125 0.746094 L 5.03125 644 L 1345.988281 644 L 1345.988281 0.746094 Z M 5.03125 0.746094 " fill-rule="nonzero"/></g></g></svg>